<?xml version="1.0" standalone="no"?>
<!DOCTYPE svg PUBLIC "-//W3C//DTD SVG 20010904//EN"
 "http://www.w3.org/TR/2001/REC-SVG-20010904/DTD/svg10.dtd">
<svg version="1.0" xmlns="http://www.w3.org/2000/svg"
 width="720.000000pt" height="720.000000pt" viewBox="0 0 720.000000 720.000000"
 preserveAspectRatio="xMidYMid meet">

<!-- Camadas de cores (reveladas pelos recortes do stencil principal) -->
<rect x="0" y="0" width="720" height="370" fill="#F5B820" />
<rect x="0" y="370" width="720" height="90" fill="#FFFFFF" />
<rect x="0" y="460" width="720" height="95" fill="#F5B820" />
<rect x="0" y="555" width="720" height="165" fill="#FFFFFF" />

<!-- Stencil original atualizado para a nova cor de fundo cinza escuro -->
<g transform="translate(0.000000,720.000000) scale(0.100000,-0.100000)"
fill="#2E2D2C" stroke="none">
<path d="M0 3600 l0 -3600 3600 0 3600 0 0 3600 0 3600 -3600 0 -3600 0 0
-3600z m2660 1709 c89 -26 209 -77 288 -124 106 -63 108 -31 -18 -290 -61
-126 -112 -231 -114 -232 -1 -2 -40 13 -86 33 -122 53 -224 71 -314 55 -116
-20 -173 -72 -215 -197 -40 -119 -7 -239 90 -328 72 -67 97 -81 170 -94 76
-14 165 -1 231 35 112 60 278 259 394 471 21 40 41 72 44 72 3 0 34 -65 70
-143 35 -78 88 -191 116 -252 28 -60 66 -143 84 -183 l33 -73 -43 -62 c-141
-202 -272 -333 -385 -386 -122 -57 -173 -66 -375 -65 -171 0 -191 2 -273 27
-179 55 -346 151 -479 276 -181 169 -290 420 -291 671 -1 146 20 245 82 370
39 81 60 109 141 191 72 73 115 106 180 142 98 53 208 92 300 106 99 15 282 5
370 -20z m1084 -121 c35 -73 121 -250 191 -393 70 -143 162 -332 205 -420 43
-88 141 -290 219 -448 78 -159 141 -293 141 -298 0 -5 -120 -9 -290 -9 l-290
0 -29 63 c-15 34 -95 204 -176 377 -81 173 -160 342 -175 375 -107 229 -161
344 -174 370 -9 17 -16 36 -16 43 0 8 48 82 107 165 59 84 131 187 161 230 29
42 55 77 58 77 2 0 33 -60 68 -132z m813 -498 c102 -217 219 -467 261 -555
212 -452 232 -496 232 -506 0 -6 -103 -8 -251 -7 l-251 3 -202 415 c-112 228
-246 504 -299 614 l-97 198 158 230 157 229 54 -113 c29 -62 136 -291 238
-508z m375 396 c187 -399 230 -490 297 -633 38 -82 139 -297 225 -480 86 -183
156 -337 156 -343 0 -6 -85 -10 -250 -10 l-250 0 -39 83 c-21 45 -76 159 -121
252 -353 726 -432 891 -433 900 0 6 53 87 118 180 66 94 135 193 154 222 29
42 38 49 45 36 5 -9 49 -102 98 -207z m-3567 -1671 c33 -9 77 -25 98 -35 49
-26 51 -25 64 10 11 28 14 30 67 30 l57 0 -3 -157 -3 -158 -54 0 -54 0 -18 52
c-40 119 -125 176 -262 176 -103 0 -176 -35 -224 -107 -43 -63 -55 -113 -55
-215 1 -73 5 -92 31 -145 49 -98 119 -136 250 -136 130 0 209 53 247 164 l16
46 58 0 c33 0 61 -3 63 -7 8 -14 -22 -112 -47 -151 -29 -46 -83 -95 -134 -121
-118 -59 -342 -55 -478 10 -206 97 -294 321 -203 514 47 101 177 198 305 229
79 19 207 19 279 1z m1895 4 c25 -6 71 -22 103 -36 l58 -26 27 26 c21 21 38
27 70 27 l42 0 0 -145 0 -145 -60 0 c-47 0 -60 3 -60 15 0 47 -73 137 -136
168 -80 41 -248 41 -302 0 -22 -16 -27 -28 -27 -63 0 -66 21 -76 242 -120 257
-51 341 -92 377 -181 54 -135 -43 -270 -222 -308 -73 -15 -197 -14 -262 3 -44
12 -119 42 -182 74 -3 2 -12 -13 -19 -32 -13 -35 -14 -36 -66 -36 l-53 0 0
160 0 160 58 0 57 0 19 -52 c24 -70 95 -139 166 -163 56 -18 181 -25 242 -12
84 17 121 85 78 140 -25 32 -79 49 -255 82 -222 42 -312 83 -346 159 -58 128
22 255 191 302 56 15 200 17 260 3z m-810 -320 c80 -170 157 -323 172 -340 22
-24 34 -29 72 -29 l46 0 0 -45 0 -45 -256 0 -255 0 3 43 3 42 55 3 c112 5 119
15 75 102 l-25 50 -160 0 -160 0 -25 -57 c-37 -82 -34 -87 53 -91 l72 -3 0
-44 0 -45 -225 0 -225 0 0 45 0 45 40 0 c51 0 83 15 103 49 8 14 63 132 120
261 58 129 119 265 136 303 l30 67 103 0 103 0 145 -311z m1875 203 c132 -284
264 -550 276 -558 8 -5 34 -11 59 -14 45 -5 45 -5 48 -47 l3 -43 -249 0 c-274
0 -262 -3 -262 61 l0 29 64 0 c107 0 114 10 71 98 l-25 52 -161 0 -160 0 -25
-56 c-36 -82 -33 -88 54 -92 l72 -3 0 -44 0 -45 -225 0 -225 0 0 44 0 43 50 5
c34 3 59 13 74 27 25 24 30 33 186 386 56 127 106 238 111 248 8 14 24 17 112
17 l102 -1 50 -107z m1515 -2 c47 -13 106 -63 133 -113 18 -35 22 -58 22 -138
0 -93 -1 -98 -35 -147 -104 -152 -339 -141 -421 20 -29 57 -35 151 -15 222 19
66 82 135 138 153 43 14 133 16 178 3z m-494 -27 c46 -24 89 -81 100 -133 12
-60 5 -170 -15 -214 -43 -96 -97 -116 -313 -116 l-159 0 3 28 c2 22 8 28 36
30 l32 3 0 184 0 184 -32 3 c-28 3 -34 7 -36 31 l-3 29 173 -4 c154 -3 177 -5
214 -25z m-2311 -803 c39 -24 45 -25 45 -5 0 16 43 31 59 20 7 -4 11 -52 11
-126 l0 -119 -35 0 c-33 0 -35 2 -35 35 0 44 -21 86 -56 114 -50 39 -109 17
-140 -50 -15 -35 -19 -66 -19 -164 0 -105 3 -125 23 -162 12 -23 31 -47 41
-53 59 -31 123 11 142 95 12 54 13 55 47 55 l35 0 -7 -52 c-17 -123 -73 -186
-175 -195 -52 -5 -68 -2 -114 21 -208 101 -186 538 30 606 40 13 110 3 148
-20z m3239 16 c98 -30 158 -107 175 -228 37 -272 -111 -449 -323 -386 -63 19
-131 92 -152 164 -38 128 -14 305 53 385 57 67 154 93 247 65z m-5145 -173
c19 -93 37 -172 42 -177 4 -4 12 18 19 50 6 33 17 84 25 114 7 30 18 83 25
118 l13 62 118 0 119 0 0 -40 c0 -37 -2 -40 -29 -40 -17 0 -31 -6 -35 -16 -9
-22 -7 -397 2 -410 4 -7 18 -14 32 -15 21 -3 26 -10 28 -41 l3 -38 -121 0
-121 0 3 37 c2 29 8 39 23 42 11 2 23 8 27 15 4 6 7 94 7 196 0 210 -4 210
-49 0 -17 -74 -37 -170 -47 -212 l-17 -78 -46 0 -47 0 -22 108 c-62 299 -76
360 -81 353 -3 -5 -3 -92 0 -192 5 -181 5 -184 28 -187 18 -3 22 -10 22 -43
l0 -39 -96 0 -95 0 3 38 c3 32 7 37 31 40 l27 3 0 220 0 219 -30 0 c-28 0 -30
2 -30 40 l0 40 118 0 118 0 33 -167z m749 130 c6 -21 29 -119 52 -218 58 -251
61 -259 93 -263 24 -3 27 -7 27 -43 l0 -39 -126 0 -125 0 3 38 c3 32 7 37 31
40 30 4 33 16 16 75 l-10 37 -63 0 -64 0 -11 -46 c-13 -49 -9 -60 24 -66 15
-2 21 -12 23 -41 l3 -38 -98 3 -98 3 0 35 c1 28 5 36 23 38 12 2 26 11 31 20
5 10 35 121 65 247 31 127 58 236 61 243 3 8 26 12 69 12 l65 0 9 -37z m639 9
c75 -54 72 -193 -7 -240 -28 -17 -28 -18 -9 -31 31 -19 49 -73 49 -150 0 -69
13 -98 31 -70 5 8 9 29 9 47 0 26 4 32 21 32 20 0 21 -4 17 -66 -4 -59 -7 -70
-34 -91 -23 -20 -37 -23 -73 -20 -76 8 -100 55 -101 193 0 41 -5 75 -12 82 -7
7 -32 12 -55 12 l-44 0 3 -92 3 -93 30 -5 c17 -3 29 -9 28 -13 -2 -4 -3 -20
-3 -37 l0 -30 -125 0 -125 0 0 39 c0 36 3 40 28 43 l27 3 0 215 0 215 -27 3
c-25 3 -28 7 -28 43 l0 41 183 -4 c170 -3 184 -4 214 -26z m1183 -87 l0 -115
-29 0 c-26 0 -29 4 -35 41 -9 57 -31 95 -58 103 -13 3 -47 6 -75 6 l-53 0 0
-85 c0 -77 2 -85 19 -85 28 0 51 27 51 61 0 26 3 29 30 29 l30 0 0 -135 0
-135 -29 0 c-26 0 -29 4 -34 41 -6 43 -19 59 -49 59 -14 0 -17 -14 -20 -95
l-3 -95 61 0 c84 0 109 21 125 101 13 66 16 70 47 62 21 -5 22 -11 22 -124 l0
-119 -220 0 -220 0 0 40 c0 38 2 40 30 40 l30 0 0 220 0 220 -30 0 c-28 0 -30
2 -30 40 l0 40 220 0 220 0 0 -115z m372 20 c20 -49 57 -139 81 -200 l45 -110
4 125 c2 69 2 142 0 163 -3 34 -6 37 -33 37 -27 0 -29 2 -29 40 l0 40 100 0
100 0 0 -40 c0 -36 -3 -40 -24 -40 -13 0 -27 -7 -30 -16 -3 -9 -6 -126 -6
-260 l0 -245 -71 3 -71 3 -82 202 c-45 111 -85 206 -89 210 -4 4 -6 -69 -5
-162 l3 -170 30 -5 c26 -4 30 -10 33 -43 l3 -37 -105 0 -106 0 0 40 c0 38 2
40 30 40 l30 0 0 220 0 220 -30 0 c-28 0 -30 2 -30 40 l0 41 108 -3 107 -3 37
-90z m798 -20 l0 -115 -29 0 c-25 0 -29 4 -35 40 -14 88 -40 110 -131 110
l-55 0 0 -85 c0 -67 3 -85 14 -85 32 0 46 14 52 51 6 35 10 39 35 39 l29 0 0
-135 0 -135 -29 0 c-26 0 -29 4 -34 41 -6 43 -19 59 -49 59 -16 0 -18 -11 -18
-95 l0 -95 59 0 c79 0 106 22 124 105 11 54 15 60 37 60 l25 0 3 -122 3 -123
-221 0 -221 0 3 37 c2 30 8 38 28 43 l25 6 0 214 0 215 -27 3 c-25 3 -28 7
-28 43 l0 39 220 0 220 0 0 -115z m385 75 c0 -32 -3 -35 -33 -38 l-32 -3 2
-217 3 -217 30 -5 c26 -4 30 -10 33 -43 l3 -37 -136 0 -136 0 3 37 c3 33 7 39
33 43 l30 5 3 195 c1 107 0 205 -3 218 -4 17 -13 22 -35 22 -28 0 -30 2 -30
40 l0 41 133 -3 132 -3 0 -35z m483 17 c83 -45 83 -196 0 -247 -30 -18 -30
-18 -8 -30 32 -17 50 -70 50 -149 0 -69 13 -98 31 -70 5 8 9 29 9 47 0 29 3
33 23 30 20 -3 22 -8 19 -53 -6 -93 -59 -140 -133 -119 -55 16 -72 51 -77 156
-6 119 -10 128 -68 128 l-45 0 3 -92 3 -93 28 -3 c24 -3 27 -7 27 -43 l0 -39
-125 0 -125 0 0 39 c0 36 3 40 28 43 l27 3 0 215 0 215 -27 3 c-25 3 -28 7
-28 43 l0 41 178 -4 c148 -2 182 -6 210 -21z m-1798 -814 c0 -17 -70 -63 -95
-63 l-26 0 28 35 c22 27 35 35 61 35 17 0 32 -3 32 -7z m-1240 -249 c0 -204
-11 -233 -92 -234 -36 0 -38 2 -38 30 0 26 3 30 29 30 38 0 41 12 41 193 l0
147 30 0 30 0 0 -166z m319 18 c28 -81 51 -151 51 -155 0 -4 -15 -7 -34 -7
-29 0 -34 4 -42 33 -9 31 -12 32 -66 35 -57 3 -57 3 -66 -30 -7 -29 -13 -33
-46 -36 -34 -3 -38 -1 -32 15 4 10 25 68 46 128 61 177 54 165 98 165 l39 0
52 -148z m261 137 c40 -8 53 -17 65 -39 39 -75 -6 -145 -95 -152 l-35 -3 0
-53 0 -52 -32 0 -33 0 0 155 0 155 40 0 c21 0 62 -5 90 -11z m240 -88 c0 -55
4 -111 10 -125 12 -33 52 -43 85 -22 24 16 25 20 25 132 l0 115 33 -3 32 -3 3
-95 c5 -163 -23 -210 -128 -210 -102 0 -133 49 -129 203 2 102 4 107 40 107
l29 0 0 -99z m370 -56 l0 -155 -30 0 -30 0 0 155 0 155 30 0 30 0 0 -155z
m258 146 c24 -5 51 -16 60 -25 23 -22 21 -85 -3 -102 -19 -14 -19 -15 3 -30
16 -11 22 -25 22 -52 -1 -69 -37 -92 -144 -92 l-76 0 0 155 0 155 48 0 c26 -1
67 -5 90 -9z m391 -139 c28 -81 51 -151 51 -155 0 -4 -15 -7 -34 -7 -29 0 -34
4 -42 33 -9 31 -12 32 -66 35 -57 3 -57 3 -66 -30 -7 -29 -13 -33 -46 -36 -34
-3 -38 -1 -32 15 4 10 25 68 46 128 61 177 54 165 98 165 l39 0 52 -148z"/>
<path d="M2121 3112 c-28 -64 -51 -120 -51 -125 0 -4 50 -7 111 -7 109 0 110
0 103 22 -9 28 -103 228 -108 228 -1 0 -26 -53 -55 -118z"/>
<path d="M4131 3209 c-5 -13 -27 -66 -50 -118 -23 -52 -41 -98 -41 -103 0 -4
50 -8 110 -8 61 0 110 3 110 6 0 9 -102 227 -112 238 -4 5 -11 -2 -17 -15z"/>
<path d="M5704 3240 c-58 -23 -88 -102 -82 -211 6 -102 35 -150 101 -168 39
-11 50 -11 81 4 63 30 80 66 84 172 3 80 1 99 -18 139 -31 64 -101 91 -166 64z"/>
<path d="M5130 3056 l0 -186 63 0 c73 0 104 14 129 56 27 47 34 148 14 215
-21 72 -50 92 -138 97 l-68 4 0 -186z"/>
<path d="M6146 2386 c-34 -34 -50 -120 -44 -246 6 -115 20 -158 64 -186 19
-13 32 -15 57 -8 68 20 94 105 85 278 -5 96 -30 167 -63 180 -35 13 -76 6 -99
-18z"/>
<path d="M1756 2250 c-22 -101 -23 -100 25 -100 38 0 41 2 35 23 -3 12 -10 47
-17 77 -6 30 -15 59 -19 63 -4 5 -15 -24 -24 -63z"/>
<path d="M2310 2315 l0 -85 45 0 c32 0 51 6 65 20 14 14 20 33 20 65 0 32 -6
51 -20 65 -14 14 -33 20 -65 20 l-45 0 0 -85z"/>
<path d="M5540 2314 l0 -87 52 5 c61 6 78 24 78 85 0 58 -25 83 -85 83 l-45 0
0 -86z"/>
<path d="M2911 1449 c-7 -22 -15 -47 -18 -55 -4 -10 4 -14 31 -14 41 0 40 -2
24 54 -17 59 -23 62 -37 15z"/>
<path d="M3210 1460 c0 -46 13 -56 53 -41 50 19 30 81 -25 81 -26 0 -28 -3
-28 -40z"/>
<path d="M4077 1493 c-4 -3 -7 -17 -7 -30 0 -20 5 -23 40 -23 44 0 61 19 40
45 -13 15 -61 21 -73 8z"/>
<path d="M4070 1346 c0 -41 10 -50 50 -41 66 15 53 75 -16 75 -32 0 -34 -2
-34 -34z"/>
<path d="M4431 1449 c-7 -22 -15 -47 -18 -55 -4 -10 4 -14 31 -14 41 0 40 -2
24 54 -17 59 -23 62 -37 15z"/>
</g>
</svg>
