<svg width="407" height="240" viewBox="0 0 407 240" fill="none" xmlns="http://www.w3.org/2000/svg">
<path d="M131.464 0.472168C131.275 0.755463 129.292 2.6441 127.026 4.6272C119.282 11.4263 97.4685 30.8795 90.3861 37.3009C86.5144 40.7949 82.3121 44.525 81.1317 45.5637C79.9041 46.6025 75.0408 50.9464 70.2719 55.2431C65.5031 59.4925 58.5151 65.7251 54.7378 69.0775C50.9605 72.4298 45.4362 77.3403 42.4615 80.0316C39.4869 82.723 34.7653 86.878 32.0267 89.3333C29.2882 91.7413 24.236 96.274 20.742 99.3903C10.7794 108.361 4.59406 113.886 2.09159 116.01C0.816751 117.096 -0.127575 118.088 0.014074 118.23C0.250156 118.466 7.56868 117.521 34.3403 113.839L40.6201 112.989L40.384 114.688C40.2424 115.633 39.5813 120.543 38.9203 125.595C36.4651 145.143 35.3791 153.547 34.1987 162.424C33.5377 167.476 32.3572 176.495 31.5546 182.491C30.7991 188.44 29.7603 196.514 29.241 200.433C28.7216 204.305 27.494 214.22 26.4552 222.389C25.4164 230.557 24.4249 237.876 24.2833 238.631L24.0472 240L26.7385 239.717C28.2494 239.528 43.0753 237.168 59.6955 234.429C76.3156 231.69 97.6102 228.149 107.053 226.638C116.449 225.08 131.842 222.53 141.285 220.972C164.091 217.242 193.223 212.473 209.135 209.876C216.265 208.696 223.3 207.516 224.716 207.28C226.133 207.044 229.674 206.477 232.507 206.052C235.387 205.674 238.173 205.249 238.787 205.108C240.534 204.777 239.967 204.069 238.079 204.258C237.087 204.352 234.065 204.635 231.327 204.872C228.588 205.108 221.081 205.863 214.565 206.524C196.481 208.318 179.483 209.971 160.03 211.765C150.304 212.662 140.294 213.654 137.838 213.89C131.464 214.551 105.731 217.101 94.8716 218.139C92.1331 218.375 87.6948 218.848 84.9562 219.084C82.2177 219.367 77.8738 219.792 75.2769 220.028C57.9013 221.633 44.4446 222.908 40.8562 223.333C38.4954 223.569 36.5123 223.664 36.4178 223.569C36.229 223.38 36.7956 217.903 38.6842 202.322C38.9203 200.244 39.9119 192.076 40.809 184.144C41.7061 176.211 42.792 167.287 43.1698 164.313C43.5475 161.338 44.303 155.058 44.8223 150.384C45.3889 145.71 46.0972 139.524 46.4749 136.691C46.8527 133.811 47.797 125.879 48.5997 118.985C49.4023 112.092 50.1578 105.623 50.2994 104.631L50.5827 102.79L49.0246 103.12C48.1275 103.309 46.05 103.64 44.3502 103.876C42.6504 104.112 37.2677 104.962 32.3572 105.765C27.4467 106.52 23.3389 107.181 23.2445 107.181C23.1501 107.181 24.9443 105.528 27.2107 103.498C29.4771 101.515 32.9238 98.3516 34.9069 96.5573C36.89 94.7159 41.1395 90.8914 44.3502 88.0584C47.6081 85.1782 51.7631 81.4953 53.6046 79.7956C55.446 78.0958 59.5538 74.3657 62.7645 71.5327C65.9753 68.6525 69.8942 65.1585 71.4523 63.6948C73.0577 62.2783 75.2769 60.248 76.4573 59.2092C77.5905 58.2177 79.9513 56.093 81.6511 54.5348C83.3509 52.9767 87.4115 49.341 90.6222 46.5081C93.8801 43.6279 97.8935 40.0394 99.5933 38.4341C104.22 34.1846 125.846 14.7787 130.756 10.5292L132.55 9.01831L147.801 26.0162L163.099 43.0141L168.293 42.6835C171.173 42.5419 173.581 42.3058 173.676 42.2114C173.817 42.0697 169.426 37.4897 163.996 31.9654C136.469 4.06061 132.409 0 132.078 0C131.889 0 131.606 0.236084 131.464 0.472168Z" fill="#823904"/>
<path d="M270.989 36.2151C270.092 36.3095 264.048 36.7817 257.532 37.3011C239.873 38.7176 230.619 39.5202 215.746 40.7951C208.333 41.4561 199.645 42.2116 196.387 42.4949C189.352 43.1087 188.313 43.4392 186.755 45.7056C185.102 48.1608 184.724 49.294 184.111 54.3462C183.45 59.4455 183.969 61.8535 186.047 63.3645C187.369 64.356 187.038 64.356 207.955 62.5618C212.393 62.1841 218.531 61.6175 221.648 61.3814C224.764 61.0981 231.044 60.5787 235.576 60.201C240.109 59.8232 245.35 59.3983 247.144 59.2567C250.78 58.9734 258.051 58.3595 268.77 57.4152C276.891 56.707 277.552 56.3765 279.629 52.3631C280.762 50.1439 280.951 49.0579 281.235 44.2891L281.518 38.7648L280.054 37.3483C278.732 35.979 278.402 35.8846 275.616 35.979C273.963 35.979 271.886 36.1207 270.989 36.2151ZM256.352 41.1728C256.352 41.645 256.163 43.4864 255.879 45.2334C255.643 46.9804 255.171 50.2383 254.888 52.5047L254.369 56.6598H252.952C251.63 56.6598 251.536 56.5653 251.772 55.3377C251.913 54.6295 252.197 52.6936 252.338 50.9938L252.669 47.9247L251.158 50.1439C250.355 51.4187 249.411 52.4103 249.128 52.4103C248.797 52.4103 248.136 51.5132 247.664 50.38L246.767 48.3969L246.342 51.9381C245.681 57.5096 245.634 57.6041 244.217 57.6041H242.989L243.32 53.9212C244.217 43.392 244.406 41.9755 245.161 41.1728C246.2 40.134 246.861 40.8423 248.325 44.4779C248.939 45.9889 249.552 47.2165 249.694 47.2165C249.836 47.2165 250.827 45.8 251.819 44.1002C252.858 42.4004 253.944 40.7006 254.321 40.3229C255.171 39.5202 256.352 39.9924 256.352 41.1728ZM234.963 42.7309C236.757 44.0058 236.757 48.5386 235.01 49.6717C234.585 49.9078 234.632 50.1911 235.057 50.7105C235.529 51.2771 235.624 52.4103 235.435 54.5822C235.34 56.282 235.104 57.7457 235.01 57.8402C234.915 57.9818 234.302 58.1235 233.641 58.1707C232.507 58.3123 232.507 58.2651 232.649 55.1016L232.791 51.9381H230.902H229.013L228.73 54.1573C228.116 58.7373 228.022 59.0206 226.841 59.0206C225.236 59.0206 225.094 58.5012 225.614 55.1488C225.85 53.4963 226.322 50.0023 226.653 47.3581C227.314 41.9755 227.078 42.2116 231.563 42.0699C233.027 42.0699 234.349 42.306 234.963 42.7309ZM219.287 43.392C219.523 43.8169 218.484 53.3074 217.823 56.282C217.398 58.3123 215.179 59.8705 212.157 60.2482C209.607 60.5315 208.71 60.201 208.663 58.9261C208.663 58.3595 210.363 57.6513 212.252 57.4152C213.243 57.2736 214.329 56.8486 214.612 56.4237C214.896 56.0459 215.51 53.0241 215.934 49.719C216.407 46.4138 216.879 43.5336 216.973 43.3448C217.304 42.8254 218.956 42.8726 219.287 43.392Z" fill="#9C9A9B"/>
<path d="M300.168 45.1861C299.696 45.2805 299.318 45.6583 299.318 46.036C299.318 47.8302 297.005 65.253 296.721 65.5363C296.627 65.6308 295.872 65.4891 295.022 65.2058C292.991 64.4976 290.206 64.5448 285.862 65.3947C277.457 67 273.68 71.58 272.216 81.9204C270.469 94.1494 269.336 104.348 269.336 107.653C269.336 110.675 269.572 111.572 270.752 113.791C271.697 115.538 272.783 116.719 274.058 117.474C275.805 118.466 276.371 118.56 281.376 118.371C285.956 118.23 287.231 117.994 289.403 117.002C294.361 114.688 297.807 109.684 298.799 103.309C299.224 100.524 299.885 95.4715 302.151 76.2544C302.671 71.8161 303.426 65.4419 303.804 62.0895C304.229 58.69 304.748 54.3933 304.984 52.5046C305.268 50.616 305.456 48.1135 305.456 46.9803V44.8556L303.237 44.9028C301.962 44.95 300.593 45.0444 300.168 45.1861ZM291.858 71.7689C293.039 72.0994 293.936 72.8076 294.644 73.988L295.683 75.6878L294.644 84.9422C292.519 104.206 292.425 104.584 291.339 106.898C288.459 112.8 278.354 114.264 276.182 109.023C275.568 107.606 275.71 105.056 276.702 97.0296C276.938 94.9521 277.552 90.0416 278.071 86.1226C278.543 82.2509 279.251 78.1903 279.724 77.1987C281.329 73.327 283.879 71.7689 289.167 71.3911C289.686 71.3439 290.914 71.5328 291.858 71.7689Z" fill="#E26905"/>
<path d="M152.24 57.2263C139.161 58.4539 133.353 61.6174 129.387 69.597C127.923 72.6188 126.412 79.8901 125.798 86.8781C125.657 88.814 125.232 92.4496 124.854 94.9049C122.777 109.117 122.068 119.93 123.154 121.016C123.438 121.299 123.674 121.865 123.674 122.29C123.674 122.715 124.288 123.99 124.996 125.171C126.648 127.767 130.378 129.703 134.486 130.128C137.508 130.459 152.051 129.514 153.703 128.901C154.789 128.476 155.356 126.068 154.931 123.801C154.695 122.668 154.6 122.668 151.815 122.951C150.209 123.093 145.913 123.376 142.23 123.565C134.297 123.896 132.645 123.424 130.426 120.26C129.198 118.513 129.104 118.041 129.151 114.075C129.198 110.109 129.623 106.048 130.803 97.5018C131.039 95.6604 131.748 89.9472 132.409 84.7062C133.684 74.0353 134.533 71.344 137.65 68.3693C141.049 65.1114 144.496 64.2615 156.82 63.4588C159.605 63.27 162.108 62.8922 162.344 62.6089C162.58 62.3256 162.863 60.9091 162.91 59.4927L163.099 56.8958L160.03 56.8485C158.331 56.8013 154.837 56.9902 152.24 57.2263Z" fill="#E26905"/>
<path d="M318.346 63.0338C312.255 64.6864 307.959 69.7385 306.826 76.4904C306.448 78.804 305.834 83.7145 303.993 99.3903C303.048 107.228 304.04 111.761 307.203 113.886C311.311 116.719 316.646 116.813 323.871 114.216C327.365 112.989 330.67 109.164 332.039 104.82C332.889 102.176 336.147 77.1043 336.147 73.2797C336.147 68.0859 333.975 64.3558 330.15 63.081C327.459 62.1367 321.699 62.1367 318.346 63.0338ZM327.79 69.4552C329.537 70.3995 330.009 74.649 329.064 81.2121C328.828 82.9119 328.214 88.1529 327.648 92.8745C326.656 101.468 326.137 103.781 324.815 105.576C321.935 109.447 314.333 110.722 311.405 107.795C310.367 106.756 310.178 106.142 310.178 103.923C310.178 100.524 312.822 77.7653 313.483 75.4045C314.097 73.3269 316.458 70.494 318.157 69.7857C321.179 68.5581 325.759 68.4165 327.79 69.4552Z" fill="#E26905"/>
<path d="M235.293 69.6441C230.477 70.6829 227.313 72.7604 225.047 76.3488C223.678 78.4735 222.356 82.6286 222.356 84.6117C222.356 85.9337 222.403 85.9337 225.189 85.9337C227.077 85.9337 228.116 85.7449 228.21 85.3199C228.305 85.0366 228.635 83.9034 228.919 82.8174C230.382 77.4348 236.096 74.4602 241.856 76.0655C244.547 76.821 245.161 78.143 245.019 83.0063C244.831 89.4277 244.878 89.2861 244.075 88.9556C241.762 88.0112 239.637 87.7279 236.19 87.964C229.296 88.4362 224.292 91.7413 221.6 97.5017C220.892 99.1071 220.278 101.846 219.759 105.953C218.626 115.255 219.664 119.08 223.867 121.252C229.863 124.321 240.251 122.337 244.311 117.333C247.569 113.319 248.183 111.383 249.458 100.807C250.355 93.4411 251.583 83.7618 251.819 82.2036C251.913 81.5898 251.819 79.6067 251.583 77.8125C250.969 72.9492 248.986 70.8245 243.839 69.4552C241.384 68.7942 238.881 68.8414 235.293 69.6441ZM241.525 95.8964C242.895 97.1712 243.32 100.571 242.706 105.198C242.092 109.967 241.006 112.375 238.504 114.264C236.615 115.727 236.096 115.869 232.507 116.058L228.588 116.247L227.03 114.688L225.519 113.13L225.802 108.173C226.18 102.034 226.7 100.051 228.588 97.9267C231.043 95.1409 233.31 94.3382 237.654 94.6687C239.684 94.8576 240.77 95.1881 241.525 95.8964Z" fill="#E26905"/>
<path d="M210.08 71.3911C200.07 72.241 196.009 74.1769 192.562 79.7484C191.287 81.8732 190.107 86.0282 190.06 88.7195C189.965 93.9605 192.846 97.2657 200.872 101.185C204.272 102.884 207.105 104.631 208.474 105.953C210.599 107.984 210.646 108.125 210.316 110.109C210.127 111.242 209.513 112.989 208.994 114.027C207.011 117.994 204.697 118.749 191.382 119.741C188.974 119.882 186.849 120.166 186.566 120.354C186.283 120.496 185.999 121.913 185.905 123.471L185.763 126.304L188.596 126.256C193.884 126.209 203.422 125.123 205.452 124.368C211.354 122.196 214.187 119.08 215.982 112.894C218.154 105.151 215.462 100.76 205.311 95.7548C201.958 94.055 199.173 92.308 198.039 91.1276L196.198 89.2389L196.717 86.4531C197.378 83.1008 198.181 81.7315 200.684 80.0317C202.336 78.8513 203.233 78.6625 209.513 78.0959C213.338 77.7181 217.398 77.246 218.579 77.0571L220.703 76.7266L220.845 73.752L220.987 70.8246L218.012 70.919C216.359 70.919 212.818 71.1551 210.08 71.3911Z" fill="#E26905"/>
<path d="M172.023 74.5546C166.546 75.4517 162.296 78.5207 160.077 83.2896C158.708 86.1698 157.575 90.4193 158.047 90.8914C158.566 91.3636 162.721 91.1275 163.382 90.5137C163.807 90.2304 164.374 89.0028 164.704 87.8224C166.263 82.3453 172.92 79.2762 178.397 81.4954C181.325 82.6758 181.702 84.6589 180.522 92.6384C180.286 94.1966 180.144 94.3854 179.389 93.9605C177.925 93.1578 173.203 92.9217 169.993 93.4411C166.168 94.0549 163.146 95.5186 160.691 97.9739C157.622 101.043 156.442 104.112 155.497 111.525C154.506 119.221 154.883 122.007 157.244 124.557C159.794 127.295 161.116 127.72 166.876 127.673C171.315 127.673 172.401 127.531 174.431 126.54C177.783 124.934 180.003 123.093 181.655 120.496C184.063 116.813 184.252 115.633 187.132 90.9386C188.077 82.3925 186.991 78.3319 183.072 75.8766C180.711 74.4129 176.367 73.8936 172.023 74.5546ZM177.358 101.279L179.058 102.979L178.728 107.653C178.35 113.366 177.453 116.577 175.706 118.371C174.148 120.071 169.521 121.865 167.16 121.724C164.846 121.582 162.013 119.788 161.588 118.135C161.163 116.483 162.155 106.567 162.91 105.198C164.846 101.468 168.104 99.6737 172.967 99.6264C175.47 99.6264 175.848 99.7681 177.358 101.279Z" fill="#E26905"/>
<path d="M336.997 108.928C334.73 109.164 333.975 110.25 333.833 113.413C333.786 114.735 333.644 116.01 333.503 116.246C332.653 117.616 336.572 118.513 340.302 117.757C342.096 117.38 342.757 115.774 342.757 111.902C342.757 108.503 342.474 108.361 336.997 108.928Z" fill="#823904"/>
<path d="M230.803 45.037C230.026 45.118 229.767 45.4906 229.719 46.5759C229.703 47.0295 229.654 47.4669 229.606 47.5479C229.314 48.0176 230.657 48.3254 231.935 48.0662C232.55 47.9366 232.776 47.3859 232.776 46.0576C232.776 44.8912 232.679 44.8426 230.803 45.037Z" fill="#9C9A9B"/>
<path d="M389.029 120.59C382.089 122.149 378.311 124.415 375.337 128.9C372.598 133.008 372.032 135.936 368.915 162.66C367.877 171.678 368.443 175.267 371.418 178.525C373.637 180.98 375.903 182.113 379.397 182.491C386.574 183.294 394.082 180.838 398.095 176.447C402.675 171.49 403.1 169.554 406.122 142.499C407.019 134.378 407.066 132.3 406.641 130.175C405.508 124.793 402.25 121.629 396.679 120.59C392.948 119.835 392.429 119.835 389.029 120.59ZM395.026 129.845C398.048 130.931 398.284 133.717 396.584 147.409C396.065 151.659 395.451 157.136 395.168 159.591C394.034 169.365 392.193 172.056 385.583 173.331C382.466 173.945 379.445 173.189 378.406 171.537C377.461 170.167 377.273 167.146 377.745 163.463C378.359 158.977 380.153 144.482 380.531 140.705C381.144 134.661 383.033 131.733 387.141 130.317C390.068 129.278 392.948 129.137 395.026 129.845Z" fill="#823904"/>
<path d="M112.436 123.14C111.35 124.273 105.354 133.717 95.3438 150.148C93.9273 152.509 91.4721 156.475 89.8667 159.024C88.2614 161.527 86.7032 164.124 86.3727 164.738L85.7589 165.871L85.0034 164.265C84.2008 162.613 79.2903 151.092 70.2247 129.514C69.2804 127.201 68.5249 126.067 67.8639 125.879C66.6835 125.595 64.181 126.02 63.3784 126.634C62.7646 127.153 62.859 126.54 60.8759 143.065C59.5538 154.02 58.4207 163.368 57.0986 174.228C55.1627 189.621 53.3213 205.863 53.3213 207.138C53.3213 208.979 54.2656 209.593 56.8625 209.357C61.3008 208.932 61.7258 208.79 62.0091 207.138C62.434 204.635 68.5249 154.303 68.5722 152.414C68.6194 151.423 68.761 150.62 68.9027 150.62C69.0443 150.667 70.1303 153.028 71.3579 155.955C81.8399 181.216 82.501 182.633 83.9175 183.105C84.7201 183.341 87.2698 179.658 94.6356 167.429C99.6405 159.166 106.817 147.787 106.959 147.881C107.053 147.976 106.912 148.826 106.676 149.723C106.44 150.62 106.015 153.359 105.779 155.814C105.212 160.913 101.907 188.535 100.774 197.364C99.7821 205.155 99.8766 205.391 103.087 205.391C104.457 205.391 106.251 205.249 107.053 205.108C108.376 204.824 108.564 204.588 108.989 202.369C109.273 201.047 109.934 196.136 110.453 191.462C110.972 186.788 111.633 181.452 111.87 179.658C112.106 177.817 112.719 172.292 113.286 167.382C113.805 162.424 114.466 157.041 114.702 155.342C114.986 153.642 115.836 146.654 116.638 139.76C117.441 132.867 118.196 126.304 118.338 125.17C118.574 123.518 118.433 122.951 117.772 122.432C116.261 121.346 113.853 121.676 112.436 123.14Z" fill="#823904"/>
<path d="M364.949 122.384C355.506 123.376 350.926 125.217 347.337 129.514C344.127 133.386 343.135 136.313 342.049 145.19C341.672 148.306 340.916 154.35 340.397 158.647C338.225 176.542 337.894 179.799 337.847 182.727L337.8 185.796L341.105 185.938C343.277 186.032 344.693 185.843 345.26 185.465C346.204 184.757 346.299 184.285 348.66 164.549C351.587 139.902 351.681 139.193 352.815 136.927C354.562 133.339 356.922 132.3 364.76 131.497C368.349 131.119 371.654 130.789 372.079 130.789C373.212 130.789 373.92 128.711 373.92 125.406C373.92 121.44 373.92 121.44 364.949 122.384Z" fill="#823904"/>
<path d="M332.983 125.454C332.511 125.831 332.133 126.492 332.133 126.917C332.086 127.342 331.944 128.995 331.708 130.553C331.519 132.111 330.858 137.635 330.197 142.829C329.064 152.273 328.639 156.097 326.467 174.417C325.806 179.8 325.145 184.427 325.051 184.663C324.909 184.852 325.051 185.466 325.381 186.032C325.901 186.835 326.467 186.977 329.159 186.977C333.88 186.977 333.833 187.071 335.108 176.117C335.722 171.065 336.76 162.755 337.374 157.702C340.349 134.283 341.152 126.492 340.727 125.406C340.443 124.745 339.829 124.651 337.138 124.745C335.297 124.793 333.503 125.123 332.983 125.454Z" fill="#823904"/>
<path d="M309.47 127.059C303.662 128.145 300.262 129.845 297.335 133.056C293.794 136.974 292.33 141.318 291.339 150.62C291.055 153.359 290.583 157.041 290.347 158.883C288.175 174.795 288.128 179.28 289.969 182.869C292.613 188.157 299.035 190.282 307.014 188.629C311.925 187.638 314.191 186.552 317.024 184.002C319.952 181.405 321.604 178.478 322.926 173.567L323.965 169.837L323.021 168.893C322.124 168.043 321.746 167.996 318.866 168.373C315.372 168.845 315.372 168.845 314.144 172.953C312.822 177.392 308.997 180.036 303.898 179.989C300.829 179.941 299.365 179.422 298.327 177.911C297.335 176.542 297.335 176.4 297.902 169.979L298.515 163.463L300.451 163.18C302.387 162.896 309.989 162.235 318.818 161.669C321.746 161.433 323.729 161.102 324.107 160.677C324.484 160.347 324.862 159.166 325.004 158.033C327.081 142.027 327.223 140.421 326.751 137.494C325.759 131.356 322.501 128.098 316.41 127.106C312.68 126.492 312.728 126.492 309.47 127.059ZM316.08 137.116C317.119 137.919 317.685 138.816 317.874 139.902C318.157 141.649 317.166 151.517 316.599 152.414C316.41 152.745 315.277 152.981 314.05 153.028C312.822 153.028 309.139 153.311 305.834 153.595C301.49 154.02 299.79 154.02 299.79 153.642C299.79 151.564 301.348 142.64 301.962 141.413C303.52 138.06 307.109 136.125 311.783 136.03C314.05 135.983 314.852 136.172 316.08 137.116Z" fill="#823904"/>
<path d="M272.405 130.128C265.606 131.261 262.489 132.725 259.09 136.361C254.84 140.894 254.604 141.98 251.63 166.674C250.308 177.439 249.033 187.543 248.797 189.101C248.372 191.604 248.466 192.029 249.222 192.832C249.977 193.587 250.544 193.634 253.424 193.351C255.879 193.115 256.823 192.832 257.06 192.265C257.39 191.462 259.704 172.906 261.545 156.522C262.112 151.848 262.82 147.079 263.198 145.899C264.378 142.263 267.022 140.138 271.366 139.335C274.388 138.722 277.551 139.383 278.59 140.752C280.243 142.924 280.384 140.846 276.229 176.353C275.427 183.105 274.766 189.054 274.766 189.621C274.766 191.179 276.607 191.746 279.818 191.226C281.329 190.943 282.698 190.754 282.84 190.754C283.029 190.754 283.406 188.913 283.69 186.599C283.973 184.333 284.445 180.98 284.681 179.186C284.917 177.345 285.342 173.945 285.625 171.631C285.909 169.271 286.334 165.871 286.57 164.077C286.806 162.235 287.231 158.741 287.514 156.286C287.797 153.831 288.27 150.148 288.553 148.118C289.497 141.366 288.222 136.125 284.917 133.245C283.784 132.253 282.037 131.167 281.045 130.884C278.921 130.27 274.105 129.845 272.405 130.128Z" fill="#823904"/>
<path d="M230.382 133.811C227.974 134.331 224.197 136.078 222.308 137.541C221.931 137.872 220.703 139.241 219.617 140.61C217.115 143.774 215.557 148.92 214.801 156.05C214.518 158.883 213.762 165.352 213.101 170.404C211.449 183.577 211.59 186.694 214.093 190.282C215.981 192.973 218.39 194.343 222.45 195.051C225.425 195.523 226.558 195.523 230.052 194.862C236.662 193.682 240.581 191.226 243.65 186.41C245.256 183.908 247.05 178.147 246.814 176.211C246.672 174.984 246.578 174.937 243.178 174.795C239.306 174.653 237.937 175.314 237.937 177.392C237.937 178.903 236.709 181.783 235.435 183.105C233.924 184.71 231.421 185.844 228.683 186.174C224.008 186.694 221.27 185.277 220.798 182.066C220.656 180.886 221.789 170.026 222.12 169.601C222.214 169.507 227.833 168.94 234.585 168.374C243.509 167.618 247.144 167.099 247.569 166.627C248.277 165.871 250.213 150.998 250.213 146.465C250.213 141.932 249.411 139.572 247.05 136.928C245.444 135.133 244.358 134.425 242.517 133.858C239.731 133.009 234.065 133.009 230.382 133.811ZM238.598 142.593C239.259 142.83 240.251 143.727 240.723 144.529C241.667 146.087 241.667 146.229 240.864 155.106L240.534 158.883L231.846 159.591L223.206 160.347L223.489 156.994C224.197 149.298 225.425 146.04 228.305 144.057C230.807 142.357 236.001 141.602 238.598 142.593Z" fill="#823904"/>
<path d="M204.65 135.558C197.614 136.455 193.507 138.344 190.201 142.027C186.471 146.276 185.716 148.779 184.158 161.952C183.591 166.485 182.836 172.765 182.458 175.881C181.561 183.152 181.561 186.646 182.458 189.715C183.402 192.784 185.338 195.098 188.266 196.514C190.296 197.506 191.051 197.6 197.426 197.506C201.25 197.459 205.547 197.175 206.963 196.892L209.513 196.373L209.843 192.784C210.316 187.732 210.41 187.779 202.383 188.488C191.76 189.385 190.39 188.488 190.91 180.886C191.051 178.383 191.382 174.748 191.618 172.812C191.854 170.876 192.515 165.54 193.034 161.008C194.12 152.131 194.829 149.487 196.67 147.645C198.795 145.521 200.872 144.907 208.049 144.246C211.827 143.915 215.132 143.396 215.415 143.113C216.17 142.357 216.784 136.408 216.17 135.653C215.557 134.944 209.985 134.897 204.65 135.558Z" fill="#823904"/>
<path d="M177.264 137.919C170.182 138.486 166.593 139.666 162.769 142.641C160.644 144.34 158.047 148.212 157.055 151.187C156.253 153.5 156.111 154.445 153.892 172.576C150.304 201.519 150.398 200.339 151.295 200.953C152.192 201.614 157.953 201.331 158.897 200.622C159.18 200.386 159.558 198.97 159.7 197.459C159.841 195.995 160.502 190.424 161.163 185.088C161.824 179.753 162.91 170.923 163.571 165.493C164.893 154.256 165.177 153.076 166.924 150.762C168.812 148.259 171.409 147.41 178.822 146.796C182.883 146.418 185.527 145.993 185.999 145.568C186.802 144.813 187.463 139.383 186.849 138.202C186.377 137.305 185.291 137.258 177.264 137.919Z" fill="#823904"/>
<path d="M135.478 141.177C132.314 141.649 127.876 143.254 125.846 144.671C121.927 147.315 118.858 152.32 117.96 157.655C117.205 161.716 117.677 162.141 121.974 161.81C123.768 161.669 125.421 161.338 125.657 161.102C125.846 160.913 126.365 159.497 126.743 158.033C128.065 152.981 130.803 150.762 136.328 150.29C139.869 150.006 142.088 150.762 143.032 152.556C143.646 153.642 143.741 156.9 143.268 160.63L142.938 163.227L141.238 162.849C138.169 162.141 132.125 162.377 128.962 163.321C119.33 166.249 115.269 172.859 114.419 187.024C114.041 192.926 114.608 195.995 116.686 198.828C121.549 205.58 137.366 204.494 143.977 196.986C148.132 192.265 148.651 190.282 151.295 167.854C152.853 154.728 152.853 151.328 151.248 147.74C148.934 142.593 142.891 140.091 135.478 141.177ZM138.783 172.245C140.908 173.425 141.238 174.842 140.719 180.838C140.01 188.204 138.688 191.179 135.336 192.973C131.889 194.767 125.562 194.484 124.051 192.501C123.107 191.273 122.965 187.779 123.674 182.255C124.193 178.336 125.657 175.031 127.498 173.662C130.52 171.395 135.903 170.734 138.783 172.245Z" fill="#823904"/>
</svg>
